<?xml version="1.0" standalone="no"?><!DOCTYPE svg PUBLIC "-//W3C//DTD SVG 1.1//EN" "http://www.w3.org/Graphics/SVG/1.1/DTD/svg11.dtd"><svg t="1547531718724" class="icon" style="" viewBox="0 0 1024 1024" version="1.1" xmlns="http://www.w3.org/2000/svg" p-id="1154" xmlns:xlink="http://www.w3.org/1999/xlink" width="200" height="200"><defs><style type="text/css"></style></defs><path d="M621.313 72.46H392.318c-60.03 0-135.602 8.694-198.982 59.797-47.84 40.212-71.18 95.678-71.18 145.683 0 84.786 66.73 170.671 184.537 170.671 11.15 0 23.341-1.098 35.619-2.167-5.575 13.029-11.123 23.891-11.123 42.408 0 33.684 17.738 54.338 33.31 73.895-50.006 3.264-143.402 8.695-212.329 50.006-65.604 38.046-85.595 93.483-85.595 132.624 0 80.454 77.795 155.476 239.02 155.476 191.21 0 292.377-103.274 292.377-205.45 0-75.023-44.403-112-93.368-152.213l-40.038-30.447c-12.22-9.764-28.888-22.822-28.888-46.742 0-23.89 16.669-39.142 31.141-53.269 46.655-35.879 93.367-73.926 93.367-154.378 0-82.62-53.357-126.097-78.951-146.751h68.927l71.151-39.144z m-97.816 665.35c0 67.367-56.679 117.373-163.42 117.373-118.961 0-195.687-55.436-195.687-132.626s71.18-103.275 95.62-111.97c46.683-15.223 106.74-17.42 116.765-17.42 11.092 0 16.639 0 25.536 1.099 84.527 58.728 121.186 88.05 121.186 143.544zM434.61 387.745c-17.823 17.36-47.896 30.447-75.658 30.447-95.591 0-138.98-120.694-138.98-193.521 0-28.281 5.547-57.632 24.496-80.453 17.796-21.753 48.88-35.88 77.795-35.88 92.298 0 140.078 121.764 140.078 200.022 0.002 19.556-2.223 54.367-27.731 79.385z m408.19-149.728v-110.44h-55.465v110.44H676.403v55.235h110.93V403.69h55.465V293.252h110.929v-55.235H842.799z" fill="#999999" p-id="1155"></path></svg>