<?xml version="1.0" standalone="no"?><!DOCTYPE svg PUBLIC "-//W3C//DTD SVG 1.1//EN" "http://www.w3.org/Graphics/SVG/1.1/DTD/svg11.dtd"><svg t="1547531731446" class="icon" style="" viewBox="0 0 1024 1024" version="1.1" xmlns="http://www.w3.org/2000/svg" p-id="1679" xmlns:xlink="http://www.w3.org/1999/xlink" width="200" height="200"><defs><style type="text/css"></style></defs><path d="M810.666667 917.333333H213.333333c-59.733333 0-106.666667-46.933333-106.666666-106.666666V213.333333c0-59.733333 46.933333-106.666667 106.666666-106.666666h597.333334c59.733333 0 106.666667 46.933333 106.666666 106.666666v597.333334c0 59.733333-46.933333 106.666667-106.666666 106.666666zM512 341.333333c-93.866667 0-170.666667 76.8-170.666667 170.666667s76.8 170.666667 170.666667 170.666667 170.666667-76.8 170.666667-170.666667-76.8-170.666667-170.666667-170.666667z m320-128c0-12.8-8.533333-21.333333-21.333333-21.333333h-106.666667c-12.8 0-21.333333 8.533333-21.333333 21.333333v106.666667c0 12.8 8.533333 21.333333 21.333333 21.333333h106.666667c12.8 0 21.333333-8.533333 21.333333-21.333333v-106.666667z m0 256h-89.6c2.133333 12.8 4.266667 27.733333 4.266667 42.666667 0 130.133333-104.533333 234.666667-234.666667 234.666667s-234.666667-104.533333-234.666667-234.666667c0-14.933333 2.133333-29.866667 4.266667-42.666667H192v320c0 23.466667 19.2 42.666667 42.666667 42.666667h554.666666c23.466667 0 42.666667-19.2 42.666667-42.666667V469.333333z" fill="#ffffff" p-id="1680"></path></svg>