<?xml version="1.0" standalone="no"?><!DOCTYPE svg PUBLIC "-//W3C//DTD SVG 1.1//EN" "http://www.w3.org/Graphics/SVG/1.1/DTD/svg11.dtd"><svg t="1547531725811" class="icon" style="" viewBox="0 0 1190 1024" version="1.1" xmlns="http://www.w3.org/2000/svg" p-id="1500" xmlns:xlink="http://www.w3.org/1999/xlink" width="232.421875" height="200"><defs><style type="text/css"></style></defs><path d="M1068.8 134.4s-89.6 51.2-128 51.2c-83.2-128-390.4-70.4-339.2 172.8C339.2 364.8 192 160 192 160s-89.6 147.2 57.6 262.4c-32 6.4-83.2-12.8-83.2-12.8s-25.6 128 153.6 185.6c-19.2 25.6-89.6 6.4-89.6 6.4s19.2 108.8 179.2 140.8c-108.8 102.4-300.8 70.4-288 83.2 160 140.8 864 172.8 870.4-499.2 38.4-12.8 102.4-108.8 102.4-108.8s-102.4 32-108.8 25.6c76.8-44.8 83.2-108.8 83.2-108.8" p-id="1501" fill="#999999"></path></svg>