<?xml version="1.0" standalone="no"?><!DOCTYPE svg PUBLIC "-//W3C//DTD SVG 1.1//EN" "http://www.w3.org/Graphics/SVG/1.1/DTD/svg11.dtd"><svg t="1548139674960" class="icon" style="" viewBox="0 0 1024 1024" version="1.1" xmlns="http://www.w3.org/2000/svg" p-id="3797" xmlns:xlink="http://www.w3.org/1999/xlink" width="200" height="200"><defs><style type="text/css"></style></defs><path d="M876.416 272.136533H707.7632L840.277333 91.690667c18.065067-24.046933 12.049067-60.1344-12.049066-81.186134C804.130133-7.552 768-1.544533 746.914133 22.519467l-180.701866 246.613333h-72.285867L222.865067 100.701867c-27.101867-15.0272-63.240533-9.019733-78.301867 18.048-12.049067 18.048-12.049067 33.083733-9.0368 48.119466 3.012267 15.035733 12.049067 27.076267 24.0896 36.087467l114.440533 69.1712H147.584C66.261333 272.136533 0 338.304 0 419.498667v457.1136C0 957.815467 66.261333 1024 147.584 1024h728.832c81.314133 0 147.584-66.184533 147.584-147.3792V419.498667c0-81.194667-66.269867-147.362133-147.584-147.362134zM150.5792 572.893867l-3.003733-15.044267c-3.0208-21.060267 9.0368-42.112 30.114133-45.1328l162.6368-30.062933c21.077333-3.003733 42.154667 9.0368 45.166933 30.062933l3.0208 15.0528c3.012267 21.051733-9.0368 42.103467-30.114133 45.124267l-162.6368 30.0544c-21.077333 3.0208-42.1632-9.002667-45.184-30.0544z m472.8576 228.548266c-15.069867 9.028267-30.114133 15.0528-54.2208 15.0528-18.065067 0-36.130133-9.028267-51.182933-27.076266-3.0208-3.0208-6.033067-3.0208-9.045334 0-36.138667 36.087467-93.371733 33.083733-126.498133-6.016C367.4368 762.3424 358.4 741.2992 358.4 714.24c0-15.0528 12.049067-24.072533 24.0896-24.072533 12.049067 0 24.0896 9.028267 24.0896 24.072533 0 12.023467 3.0208 27.0592 12.049067 36.078933 12.049067 18.030933 33.134933 21.051733 48.187733 6.024534 12.040533-9.028267 18.0736-21.051733 18.0736-36.096V714.24c0-27.076267 51.2-27.076267 51.2 0 0 12.023467 3.003733 24.046933 12.032 36.078933 18.082133 21.051733 42.1632 21.051733 57.233067-3.003733 6.024533-9.019733 9.045333-21.051733 9.045333-33.0752 0-12.040533 9.0368-21.077333 18.065067-24.072533s21.085867 3.003733 27.101866 12.032c3.029333 3.003733 3.029333 6.016 3.029334 12.040533 3.003733 36.078933-9.045333 66.1504-39.159467 87.202133z m252.9792-243.592533l-3.0208 15.044267c-3.003733 21.051733-24.081067 36.078933-45.166933 30.0544l-159.616-30.0544c-21.085867-3.0208-36.1472-24.072533-30.114134-45.124267l3.003734-15.0528c3.0208-21.034667 24.098133-36.087467 45.184-30.062933l159.616 30.062933c21.077333 3.0208 33.134933 24.072533 30.114133 45.1328z m0 0" p-id="3798" fill="#1296db"></path></svg>